<svg width="19" height="23" viewBox="0 0 19 23" fill="none" xmlns="http://www.w3.org/2000/svg">
<path d="M16.7152 23H2.28481C1.679 22.9995 1.09814 22.7741 0.669768 22.3733C0.241394 21.9725 0.000509515 21.4289 0 20.8621V12.1302C0.000509515 11.5633 0.241394 11.0198 0.669768 10.6189C1.09814 10.2181 1.679 9.99266 2.28481 9.99219H16.7152C17.321 9.99266 17.9019 10.2181 18.3302 10.6189C18.7586 11.0198 18.9995 11.5633 19 12.1302V20.8621C18.9995 21.4289 18.7586 21.9725 18.3302 22.3733C17.9019 22.7741 17.321 22.9995 16.7152 23ZM2.28481 10.8924C1.93414 10.8929 1.59798 11.0234 1.35002 11.2554C1.10206 11.4875 0.962534 11.802 0.962025 12.1302V20.8621C0.962534 21.1902 1.10206 21.5047 1.35002 21.7368C1.59798 21.9688 1.93414 22.0993 2.28481 22.0998H16.7152C17.0659 22.0993 17.402 21.9688 17.65 21.7368C17.8979 21.5047 18.0375 21.1902 18.038 20.8621V12.1302C18.0375 11.802 17.8979 11.4875 17.65 11.2554C17.402 11.0234 17.0659 10.8929 16.7152 10.8924H2.28481Z" fill="#C6C6C6"/>
<path d="M16.3323 10.8924H2.67156L2.64174 10.472C2.63115 10.3288 2.62634 10.1821 2.62634 10.0372V6.4364C2.62634 4.72936 3.35104 3.09224 4.641 1.88518C5.93097 0.678119 7.68054 0 9.50482 0C11.3291 0 13.0787 0.678119 14.3686 1.88518C15.6586 3.09224 16.3833 4.72936 16.3833 6.4364V10.0372C16.3833 10.183 16.3833 10.3297 16.3679 10.4729L16.3323 10.8924ZM3.58356 9.99217H15.4165V6.4364C15.4165 4.96811 14.7931 3.55995 13.6836 2.52171C12.574 1.48347 11.0692 0.900196 9.50002 0.900196C7.93087 0.900196 6.426 1.48347 5.31645 2.52171C4.2069 3.55995 3.58356 4.96811 3.58356 6.4364V9.99217Z" fill="#C6C6C6"/>
<path d="M9.50001 17.9985C9.28066 17.9983 9.07037 17.9166 8.91527 17.7715C8.76017 17.6264 8.67292 17.4296 8.67266 17.2244V15.5212C8.67277 15.4689 8.67825 15.4168 8.68902 15.3655C8.52593 15.215 8.41436 15.0226 8.36849 14.8126C8.32262 14.6026 8.34452 14.3847 8.43141 14.1864C8.5183 13.9881 8.66626 13.8185 8.85646 13.6991C9.04666 13.5797 9.2705 13.516 9.49952 13.516C9.72855 13.516 9.95239 13.5797 10.1426 13.6991C10.3328 13.8185 10.4807 13.9881 10.5676 14.1864C10.6545 14.3847 10.6764 14.6026 10.6306 14.8126C10.5847 15.0226 10.4731 15.215 10.31 15.3655C10.3215 15.4167 10.3274 15.4689 10.3273 15.5212V17.2244C10.3271 17.4296 10.2398 17.6264 10.0847 17.7715C9.92964 17.9166 9.71935 17.9983 9.50001 17.9985ZM9.50001 15.2466L9.36147 15.4384C9.34369 15.4628 9.33429 15.4917 9.33454 15.5212V17.2244C9.33454 17.2654 9.35197 17.3048 9.383 17.3338C9.41403 17.3629 9.45612 17.3792 9.50001 17.3792C9.54389 17.3792 9.58598 17.3629 9.61701 17.3338C9.64804 17.3048 9.66547 17.2654 9.66547 17.2244V15.5212C9.66523 15.491 9.65553 15.4616 9.63758 15.4366L9.50001 15.2466ZM9.50001 14.1277C9.39055 14.1277 9.28416 14.1616 9.19739 14.224C9.11063 14.2864 9.04835 14.374 9.02026 14.473C8.99216 14.572 8.99983 14.6769 9.04205 14.7714C9.08427 14.8659 9.15869 14.9447 9.25373 14.9955L9.50001 15.1287L9.74628 14.9955C9.84132 14.9447 9.91574 14.8659 9.95796 14.7714C10.0002 14.6769 10.0078 14.572 9.97975 14.473C9.95166 14.374 9.88938 14.2864 9.80262 14.224C9.71586 14.1616 9.60947 14.1277 9.50001 14.1277Z" fill="#C6C6C6"/>
</svg>
