<svg width="27" height="27" viewBox="0 0 27 27" fill="none" xmlns="http://www.w3.org/2000/svg">
<g clip-path="url(#clip0_201_149)">
<path d="M26.9948 6.55445C26.9948 5.29727 27.0172 4.03675 26.9723 2.78628C26.9223 1.36461 25.5617 0.0620965 24.0993 0.02517C22.7699 -0.00839954 21.4404 0.02517 20.111 0.02517V0.00670922C19.0232 0.00670922 17.9372 0.00670922 16.8512 0.00670922C16.5237 0.00246469 16.1962 0.0176022 15.8705 0.0520314C14.3857 0.234986 13.1547 0.891275 12.1015 1.92354C8.43078 5.51324 4.7532 9.094 1.06871 12.6658C-0.357427 14.0539 -0.3557 15.8935 1.06871 17.2833L9.18356 25.1889C10.3732 26.3471 11.8666 26.5535 13.1547 25.8049C12.5757 25.338 12.0722 24.7892 11.6612 24.1768C11.4938 24.1863 11.3265 24.1585 11.1718 24.0957C11.0171 24.0329 10.8792 23.9366 10.7685 23.8142C8.00604 21.1287 5.23951 18.4353 2.46895 15.734C1.9907 15.2674 1.98724 14.68 2.46895 14.2117C6.24668 10.5291 10.0261 6.84986 13.8073 3.174C14.1823 2.80877 14.6297 2.52136 15.1224 2.32921C15.615 2.13705 16.1427 2.04415 16.6734 2.05612C19.0146 2.05612 21.3564 2.05612 23.6988 2.05612C24.4498 2.05612 24.8642 2.45728 24.8677 3.1891C24.8677 4.39089 24.8677 5.5927 24.8677 6.79449H24.8504C24.8504 7.96942 24.8711 9.12588 24.8504 10.2907C24.8317 11.1267 24.5108 11.9295 23.9439 12.5584L22.2795 14.1781C22.864 14.5782 23.3872 15.0569 23.8335 15.5998L25.0127 14.455L25.0783 14.3913C25.6941 13.8168 26.1808 13.1246 26.5077 12.3582C26.8346 11.5917 26.9945 10.7678 26.9775 9.93827C26.9896 8.81369 26.9965 7.68407 26.9948 6.55445Z" fill="#91929D"/>
<path d="M19.3462 4.24991C18.9294 4.25211 18.5172 4.33408 18.133 4.49115C17.7489 4.64822 17.4003 4.87731 17.1072 5.16535C16.8142 5.45338 16.5823 5.79471 16.4249 6.16985C16.2675 6.54499 16.1877 6.9466 16.19 7.35173C16.1916 7.75436 16.2747 8.15276 16.4348 8.52413C16.5948 8.8955 16.8285 9.23258 17.1225 9.51611C17.4166 9.79965 17.7653 10.0241 18.1486 10.1766C18.5319 10.3291 18.9423 10.4066 19.3565 10.4049C20.1949 10.4053 20.9995 10.0836 21.5949 9.50982C22.1903 8.93602 22.5283 8.15667 22.5351 7.34165C22.5301 6.52172 22.1922 5.73688 21.595 5.15787C20.9978 4.57886 20.1896 4.25255 19.3462 4.24991ZM19.3462 8.34036C19.2081 8.34295 19.0709 8.31815 18.943 8.2675C18.815 8.21685 18.6991 8.14141 18.6021 8.04576C18.5052 7.95012 18.4293 7.83627 18.3791 7.71118C18.3289 7.58608 18.3055 7.45237 18.3102 7.31817C18.3102 7.05108 18.4194 6.79491 18.6136 6.60605C18.8079 6.41718 19.0714 6.31108 19.3462 6.31108C19.6242 6.31533 19.8897 6.42388 20.0873 6.61408C20.2849 6.80427 20.3992 7.06137 20.4063 7.33159C20.4065 7.46599 20.3791 7.59908 20.3257 7.72302C20.2722 7.84696 20.1938 7.95923 20.095 8.05324C19.9962 8.14725 19.879 8.22108 19.7504 8.27039C19.6218 8.3197 19.4844 8.3435 19.3462 8.34036Z" fill="#91929D"/>
<path d="M23.4778 15.9623C23.0331 15.4159 22.5056 14.9383 21.9135 14.5457C20.7531 13.7774 19.381 13.3678 17.977 13.3707C16.119 13.3734 14.3378 14.092 13.0239 15.3691C11.7099 16.6461 10.9703 18.3774 10.9671 20.1837C10.9648 21.5425 11.3829 22.8707 12.1671 23.9955C12.5676 24.5666 13.0541 25.0758 13.6105 25.5061C14.8502 26.4704 16.391 26.9949 17.9787 26.9933C19.8377 26.9915 21.6201 26.2728 22.9346 24.9949C24.2491 23.7169 24.9884 21.9842 24.9903 20.177C24.9901 18.6464 24.457 17.1609 23.4778 15.9623ZM22.2088 20.9357H18.7556V24.2926C18.7547 24.4922 18.6728 24.6834 18.5276 24.8245C18.3824 24.9657 18.1857 25.0454 17.9804 25.0462C17.7751 25.0454 17.5784 24.9657 17.4332 24.8245C17.2881 24.6834 17.2061 24.4922 17.2052 24.2926V20.9357H13.7521C13.5467 20.9348 13.3501 20.8551 13.2049 20.7139C13.0597 20.5728 12.9777 20.3816 12.9768 20.182C12.9771 20.0834 12.9974 19.9858 13.0365 19.8947C13.0756 19.8037 13.1328 19.7211 13.2047 19.6516C13.2763 19.5813 13.3616 19.5255 13.4555 19.4874C13.5495 19.4494 13.6503 19.4299 13.7521 19.43H17.2052V16.0731C17.2061 15.8736 17.2878 15.6825 17.4325 15.5411C17.5773 15.3998 17.7735 15.3195 17.9787 15.3178C18.1846 15.3183 18.3819 15.398 18.5277 15.5393C18.6729 15.6805 18.7548 15.8718 18.7556 16.0714V19.4284H22.2088C22.4141 19.4284 22.611 19.5076 22.7563 19.6485C22.9017 19.7895 22.9835 19.9808 22.984 20.1803C22.984 20.3804 22.9024 20.5722 22.757 20.7138C22.6117 20.8554 22.4145 20.9352 22.2088 20.9357Z" fill="#91929D"/>
</g>
<defs>
<clipPath id="clip0_201_149">
<rect width="27" height="27" fill="white"/>
</clipPath>
</defs>
</svg>
