<svg width="27" height="27" viewBox="0 0 27 27" fill="none" xmlns="http://www.w3.org/2000/svg">
<path d="M26.9944 6.55113C26.9944 5.29343 27.0168 4.03237 26.9719 2.78139C26.9219 1.35913 25.5614 0.0561076 24.099 0.0191659C22.7696 -0.0144174 21.4402 0.0191659 20.1107 0.0191659V0.000697544C19.023 0.000697544 17.9371 0.000697544 16.8511 0.000697544C16.5235 -0.00354872 16.196 0.011595 15.8704 0.0460383C14.3856 0.229067 13.1546 0.885605 12.1014 1.91829C8.43082 5.50947 4.75333 9.09169 1.06893 12.665C-0.357174 14.0536 -0.355448 15.894 1.06893 17.2843L9.18359 25.1932C10.3732 26.3519 11.8666 26.5584 13.1546 25.8095C12.5756 25.3424 12.0722 24.7934 11.6611 24.1807C11.4938 24.1902 11.3265 24.1624 11.1718 24.0996C11.0171 24.0367 10.8792 23.9404 10.7685 23.818C8.0061 21.1313 5.23963 18.4368 2.46914 15.7345C1.99089 15.2677 1.98744 14.68 2.46914 14.2115C6.24677 10.5274 10.0261 6.84666 13.8072 3.16928C14.1822 2.8039 14.6296 2.51638 15.1223 2.32415C15.6149 2.13191 16.1426 2.03897 16.6732 2.05095C19.0144 2.05095 21.3561 2.05095 23.6985 2.05095C24.4495 2.05095 24.8639 2.45227 24.8673 3.18439C24.8673 4.38667 24.8673 5.58895 24.8673 6.79124H24.8501C24.8501 7.96665 24.8708 9.12361 24.8501 10.289C24.8313 11.1252 24.5104 11.9284 23.9436 12.5575L22.2775 14.1796C22.8623 14.5788 23.3855 15.0572 23.8314 15.6002L25.0762 14.3911C25.692 13.8165 26.1787 13.1239 26.5056 12.3572C26.8324 11.5905 26.9924 10.7662 26.9754 9.93631C26.9892 8.80959 26.9961 7.67953 26.9944 6.55113ZM15.021 22.7265C15.0843 22.9489 15.1723 23.164 15.2834 23.368L15.3317 23.4519L15.021 22.7265Z" fill="#91929D"/>
<path d="M19.3459 4.24395C18.9292 4.24615 18.517 4.32816 18.1328 4.48529C17.7487 4.64243 17.4001 4.87162 17.107 5.15977C16.814 5.44792 16.5821 5.78939 16.4247 6.16469C16.2674 6.53998 16.1875 6.94175 16.1898 7.34705C16.1914 7.74985 16.2746 8.14838 16.4346 8.5199C16.5946 8.89143 16.8283 9.22865 17.1223 9.5123C17.4164 9.79595 17.765 10.0205 18.1483 10.173C18.5316 10.3256 18.9421 10.4032 19.3563 10.4014C20.1931 10.3997 20.9955 10.0769 21.589 9.50307C22.1826 8.92928 22.5193 8.15086 22.5261 7.33697C22.5212 6.51814 22.1845 5.73423 21.5892 5.15522C20.9938 4.57621 20.1878 4.2488 19.3459 4.24395ZM19.3459 8.33608C19.2078 8.33867 19.0706 8.31386 18.9427 8.26319C18.8148 8.21252 18.6988 8.13703 18.6019 8.04135C18.505 7.94566 18.4291 7.83178 18.3789 7.70664C18.3287 7.5815 18.3053 7.4477 18.31 7.31345C18.31 7.04625 18.4191 6.79 18.6134 6.60106C18.8077 6.41212 19.0712 6.30596 19.3459 6.30596C19.6239 6.3102 19.8895 6.41882 20.087 6.60909C20.2846 6.79937 20.3989 7.05657 20.406 7.3269C20.4063 7.46135 20.3788 7.59448 20.3254 7.71847C20.2719 7.84246 20.1935 7.9548 20.0947 8.04885C19.9959 8.1429 19.8787 8.21675 19.7501 8.26608C19.6215 8.31541 19.4841 8.33922 19.3459 8.33608Z" fill="#91929D"/>
<path d="M15.021 22.7265C15.0843 22.9489 15.1723 23.164 15.2834 23.368L15.3317 23.4519L15.021 22.7265Z" fill="#91929D"/>
<path d="M23.4775 15.9612C23.0327 15.4145 22.5053 14.9367 21.9132 14.544C20.7528 13.7753 19.3807 13.3656 17.9768 13.3685C16.1178 13.3703 14.3355 14.0893 13.021 15.3678C11.7065 16.6462 10.9672 18.3796 10.9654 20.1876C10.9656 21.5479 11.3867 22.8766 12.1739 24.001C12.5744 24.5723 13.061 25.0817 13.6173 25.5123C14.857 26.4769 16.3978 27.0016 17.9854 27C19.8417 26.996 21.6207 26.2769 22.9332 25.0002C24.2456 23.7234 24.9845 21.993 24.9882 20.1876C24.9908 18.6531 24.4583 17.1631 23.4775 15.9612ZM15.8928 16.0854C16.428 15.5961 17.1352 15.324 17.8697 15.3248C18.2173 15.3287 18.5622 15.3854 18.8918 15.4927C19.4808 15.6605 20.0034 15.9984 20.3904 16.4616C20.4717 16.5625 20.5461 16.6685 20.6132 16.7789C20.7666 17.0328 20.8829 17.3064 20.9585 17.5916C20.9769 17.6644 20.9941 17.7383 21.0103 17.8133L21.0258 17.8956C21.0759 18.2352 21.095 18.5786 21.0828 18.9215C21.0856 19.0798 21.0247 19.2328 20.9131 19.348C20.8015 19.4631 20.648 19.5312 20.4854 19.5378H20.456C20.2957 19.5363 20.142 19.4757 20.026 19.3681C19.9099 19.2606 19.8402 19.1141 19.831 18.9585C19.8301 18.9541 19.8301 18.9495 19.831 18.945C19.8138 18.7553 19.8224 18.5622 19.8155 18.3708C19.8059 18.0069 19.691 17.6531 19.484 17.3498C19.3169 17.1067 19.0902 16.9079 18.8244 16.7713C18.5585 16.6347 18.2619 16.5646 17.9612 16.5673H17.9232C16.877 16.5858 16.1 17.3834 16.1018 18.4346C16.1018 18.6562 16.1208 18.8796 16.1018 19.1063C16.0907 19.2544 16.021 19.3926 15.9074 19.4919C15.7937 19.5912 15.6449 19.6437 15.4923 19.6385C15.3473 19.6405 15.2062 19.5926 15.094 19.5031C14.9819 19.4137 14.9058 19.2886 14.8794 19.1499C14.6411 18.1726 14.9968 16.9972 15.8928 16.0854ZM18.638 21.363C18.6535 21.4902 18.622 21.6185 18.5493 21.7252C18.4766 21.8319 18.3673 21.91 18.2409 21.9457C18.1811 21.9606 18.1196 21.9679 18.0579 21.9675C17.8991 21.9675 17.7281 21.9323 17.5399 21.9239C17.4664 21.7373 17.4131 21.5437 17.3811 21.3463C17.3811 21.3379 17.3811 21.3295 17.3811 21.3227C17.3569 20.688 17.3448 20.055 17.3362 19.4203V19.0491C17.3362 18.6378 17.5831 18.3775 17.9543 18.3657C18.0817 18.3634 18.2066 18.3998 18.3117 18.4698C18.3995 18.5372 18.4697 18.6236 18.5168 18.7222C18.5639 18.8208 18.5865 18.9288 18.5828 19.0374C18.5908 19.4012 18.5989 19.7656 18.6069 20.1305C18.6173 20.5403 18.6277 20.9511 18.638 21.363ZM18.8107 24.9245C18.5199 25.0028 18.2197 25.0429 17.9181 25.0438C17.2701 25.0582 16.6389 24.8433 16.1415 24.4393C15.8195 24.1522 15.5441 23.8193 15.3248 23.4519L15.2765 23.368C15.1654 23.164 15.0774 22.9489 15.014 22.7265C14.9315 22.4241 14.8897 22.1125 14.8897 21.7996C14.8897 21.6519 14.8897 21.5024 14.9053 21.3513C14.9217 21.2097 14.9922 21.0794 15.1029 20.986C15.2135 20.8927 15.3562 20.8433 15.5027 20.8475H15.5216C15.6226 20.847 15.7224 20.8688 15.8134 20.9114C15.9004 20.9538 15.9751 21.0167 16.0306 21.0945C16.0861 21.1722 16.1206 21.2622 16.1311 21.3563C16.1527 21.5672 16.1631 21.7791 16.1622 21.9911C16.1667 22.1481 16.1893 22.3041 16.2295 22.4562C16.3234 22.8467 16.5515 23.1943 16.8762 23.4416C17.2008 23.6889 17.6024 23.8211 18.0147 23.8163H18.0596C19.1111 23.7945 19.888 22.9767 19.8759 21.9105C19.863 21.6991 19.863 21.4871 19.8759 21.2757C19.8939 21.1344 19.963 21.0039 20.0709 20.9076C20.1787 20.8113 20.3183 20.7555 20.4647 20.7501H20.4906C20.6332 20.7471 20.7723 20.7931 20.8835 20.8801C20.9946 20.967 21.0707 21.0893 21.0983 21.2254C21.3677 22.9918 20.5337 24.4695 18.8176 24.9245H18.8107Z" fill="#91929D"/>
<path d="M15.3317 23.4519L15.2834 23.368C15.1723 23.164 15.0843 22.9489 15.021 22.7265L15.3317 23.4519Z" fill="#616160"/>
</svg>
