<svg width="16" height="19" viewBox="0 0 16 19" fill="none" xmlns="http://www.w3.org/2000/svg">
<path d="M15.7419 3.89065C14.7725 2.74424 13.7864 1.57299 12.7294 0.309739C12.6499 0.210226 12.5525 0.131114 12.4438 0.0777176C12.3351 0.0243209 12.2175 -0.0021272 12.099 0.000133638C9.61375 0.000133638 7.12846 0.000133638 4.64317 0.000133638H1.78921C0.757966 0.000133638 0 0.892429 0 2.12355V16.8736C0 18.1048 0.759254 19 1.80468 19H14.195C15.2418 19 15.9997 18.0989 15.9997 16.8561V13.8594C15.9997 10.7847 15.9997 7.7101 15.9997 4.63546C16.0027 4.49811 15.9815 4.36146 15.9372 4.23356C15.8929 4.10566 15.8265 3.98908 15.7419 3.89065ZM6.12042 1.70005H9.87672V4.95235H6.12171L6.12042 1.70005ZM4.02958 17.3264V13.3395C4.02958 12.9656 4.14559 12.8254 4.45625 12.8254H11.546C11.8528 12.8254 11.9727 12.9714 11.9727 13.3409V17.3264H4.02958ZM14.1873 17.3381C13.9669 17.3381 13.7465 17.3381 13.5183 17.3381H13.3971V13.2664C13.3971 12.0397 12.6417 11.1489 11.6015 11.1489H4.39696C3.35798 11.1489 2.6026 12.0397 2.6026 13.2664C2.6026 14.2138 2.6026 15.1616 2.6026 16.1099V17.3337H2.45565C2.19784 17.3337 1.95291 17.3337 1.70928 17.3249C1.62793 17.3096 1.55436 17.261 1.50256 17.1883C1.45075 17.1156 1.42432 17.0239 1.42827 16.9306C1.42827 16.8926 1.42827 16.8561 1.42827 16.8196V2.24331C1.42827 1.80519 1.52882 1.68252 1.89749 1.68252H4.68571V2.70481C4.68571 3.52166 4.68571 4.33801 4.68571 5.15389C4.68571 5.99362 5.22324 6.62745 5.93609 6.62891H10.0662C10.7778 6.62891 11.314 5.99364 11.3153 5.15245V1.67814H11.323C11.51 1.67814 11.6878 1.67814 11.8644 1.67814L11.8864 1.70151C12.7887 2.7676 13.6627 3.81032 14.5405 4.86181C14.5563 4.8857 14.5661 4.91395 14.5689 4.9436C14.5689 8.91396 14.5689 12.8853 14.5689 16.8576C14.5715 17.0766 14.5006 17.3307 14.1873 17.3322V17.3381Z" fill="white"/>
</svg>
