<svg width="15" height="19" viewBox="0 0 15 19" fill="none" xmlns="http://www.w3.org/2000/svg">
<path d="M14.1522 10.4445V14.8666C14.1602 15.5931 13.9173 16.3008 13.4633 16.8739C13.0092 17.447 12.3709 17.8517 11.6528 18.0216C11.387 18.0829 11.1153 18.1152 10.8424 18.1181C8.59316 18.1181 6.34535 18.1181 4.09897 18.1181C3.28996 18.1272 2.50635 17.8403 1.90026 17.3131C1.29416 16.7859 0.908811 16.0561 0.818967 15.2651C0.800383 15.1457 0.790403 15.0252 0.789107 14.9043V5.90079C0.772169 5.69726 0.831268 5.49467 0.955329 5.33093C1.07939 5.16719 1.2599 5.05355 1.46303 5.01135C1.58078 4.98618 1.70267 4.98663 1.82023 5.01263C1.93779 5.03863 2.04815 5.08954 2.14362 5.16187C2.23908 5.23419 2.31734 5.32614 2.37292 5.43131C2.42849 5.53647 2.46003 5.6523 2.46536 5.77071C2.46536 6.00985 2.46536 6.24483 2.46536 6.48397V14.8289C2.45504 15.0486 2.49143 15.2681 2.57223 15.4732C2.65303 15.6784 2.77645 15.8647 2.93461 16.0203C3.09277 16.1758 3.28219 16.2973 3.49076 16.3768C3.69932 16.4562 3.92245 16.492 4.14588 16.4819H10.7912C11.015 16.4926 11.2386 16.4573 11.4477 16.378C11.6567 16.2988 11.8467 16.1775 12.0053 16.0219C12.1639 15.8663 12.2877 15.6798 12.3688 15.4743C12.4498 15.2689 12.4863 15.049 12.476 14.8289V5.82945C12.4709 5.64852 12.5273 5.47108 12.6362 5.32519C12.7451 5.1793 12.9004 5.07333 13.0774 5.02395C13.2496 4.97053 13.4351 4.97586 13.6039 5.03905C13.7726 5.10225 13.9147 5.21961 14.0072 5.37215C14.0946 5.53548 14.1427 5.71632 14.148 5.90079C14.1565 7.40698 14.1522 8.92574 14.1522 10.4445Z" fill="#9697A2"/>
<path d="M10.8082 2.44853H14.1394C14.3433 2.44578 14.5414 2.51492 14.6979 2.64345C14.8543 2.77198 14.9589 2.95136 14.9925 3.14914C15.0197 3.34937 14.9725 3.55253 14.8597 3.72131C14.7469 3.8901 14.5759 4.01321 14.3783 4.06799C14.2958 4.08693 14.2113 4.09537 14.1266 4.09313C9.70212 4.09313 5.27758 4.10155 0.853057 4.11833C0.742258 4.1217 0.631918 4.10313 0.528553 4.06374C0.425187 4.02434 0.330919 3.96491 0.251351 3.88899C0.171782 3.81307 0.108519 3.72223 0.0653435 3.6218C0.0221683 3.52138 -5.29349e-05 3.41341 9.46901e-08 3.30438C9.46901e-08 3.08183 0.0898878 2.86841 0.249867 2.71105C0.409846 2.55369 0.626812 2.46527 0.853057 2.46527H4.1416V2.24295C4.1416 1.79403 4.1416 1.34508 4.1416 0.896156C4.13327 0.775965 4.15134 0.655428 4.1946 0.542723C4.23786 0.430018 4.30529 0.327801 4.3923 0.243015C4.4793 0.158228 4.58386 0.0928667 4.69884 0.0513691C4.81382 0.0098715 4.93654 -0.00680383 5.05865 0.00251023H9.904C10.0261 -0.00680383 10.1488 0.0098715 10.2638 0.0513691C10.3788 0.0928667 10.4833 0.158228 10.5703 0.243015C10.6573 0.327801 10.7248 0.430018 10.768 0.542723C10.8113 0.655428 10.8294 0.775965 10.821 0.896156C10.8125 1.39542 10.8082 1.90731 10.8082 2.44853ZM5.81358 2.44853H9.11918V1.66397H5.81358V2.44853Z" fill="#9697A2"/>
<path d="M4.96907 10.3145V7.49091C4.96213 7.38092 4.97798 7.27067 5.01565 7.16688C5.05331 7.06309 5.11199 6.96791 5.18817 6.88709C5.26434 6.80628 5.35641 6.7415 5.45878 6.69673C5.56116 6.65196 5.6717 6.62811 5.78373 6.62661C6.00997 6.62661 6.22697 6.71503 6.38695 6.87239C6.54693 7.02976 6.63679 7.24317 6.63679 7.46572C6.63679 9.36209 6.63679 11.2585 6.63679 13.1549C6.63679 13.3774 6.54693 13.5908 6.38695 13.7482C6.22697 13.9055 6.00997 13.994 5.78373 13.994C5.67432 13.9918 5.56645 13.9683 5.46633 13.9248C5.36622 13.8814 5.27585 13.8188 5.20048 13.7407C5.12511 13.6627 5.06625 13.5708 5.02726 13.4702C4.98827 13.3696 4.96993 13.2624 4.97334 13.1549L4.96907 10.3145Z" fill="#9697A2"/>
<path d="M9.97224 13.1507C9.97566 13.2593 9.95694 13.3675 9.91715 13.4689C9.87737 13.5703 9.81735 13.6628 9.74062 13.741C9.6639 13.8192 9.57202 13.8815 9.47042 13.9243C9.36882 13.967 9.25954 13.9893 9.14904 13.9898C8.9228 13.9898 8.70583 13.9014 8.54585 13.744C8.38588 13.5866 8.29599 13.3732 8.29599 13.1507V7.48253C8.29599 7.25999 8.38588 7.04657 8.54585 6.88921C8.70583 6.73185 8.9228 6.64343 9.14904 6.64343C9.25988 6.64277 9.36971 6.66421 9.47186 6.70652C9.57401 6.74884 9.66636 6.81111 9.74333 6.88957C9.8203 6.96802 9.88025 7.06103 9.9196 7.16295C9.95895 7.26487 9.97686 7.3736 9.97224 7.48253V13.1507Z" fill="#9697A2"/>
</svg>
