<svg width="19" height="14" viewBox="0 0 19 14" fill="none" xmlns="http://www.w3.org/2000/svg">
<path d="M19 1.38791C18.9187 0.999515 18.7677 0.651739 18.4494 0.383832C18.1167 0.104059 17.7297 0 17.3017 0C13.382 0 9.46247 0 5.54307 0C4.25091 0 2.95874 0 1.66657 0C0.990055 0 0.464546 0.277948 0.170893 0.885872C0.0653992 1.11141 0.0102673 1.3565 0.00919914 1.6047C-0.00102234 5.20052 -0.00272751 8.79619 0.00408745 12.3917C0.00408745 13.3428 0.697332 13.9969 1.68516 13.9969C6.26001 13.9969 10.8349 13.9969 15.4097 13.9969C16.0407 13.9969 16.6712 13.9868 17.3017 13.9996C18.1887 14.0174 18.8615 13.4369 18.9744 12.6788C18.9806 12.6557 18.989 12.6332 18.9995 12.6117L19 1.38791ZM17.5387 0.801438L17.5745 0.859857C17.5345 0.875903 17.4966 0.896588 17.4616 0.921471C15.0126 3.11462 12.5638 5.30793 10.1151 7.50139C9.69138 7.88065 9.29969 7.87198 8.86711 7.4845C6.44076 5.31173 4.01487 3.13866 1.58944 0.965285C1.53695 0.924977 1.48151 0.888518 1.42356 0.856206L1.46399 0.801438H17.5387ZM7.67856 7.47765C7.92714 7.69809 8.13205 7.88248 8.33974 8.06413C8.6111 8.30237 8.91172 8.48447 9.28204 8.53467C9.8266 8.60907 10.2727 8.41099 10.6662 8.06139L11.3241 7.47719L17.5884 13.1512L17.5573 13.2032H1.44494L1.41613 13.1493L7.67856 7.47765ZM18.1548 1.35186C18.2431 1.64258 18.2296 12.4424 18.1525 12.6048L11.9124 6.95051L18.1548 1.35186ZM0.815351 12.6359V1.3231L7.088 6.95051L0.815351 12.6359Z" fill="#BFBFBF"/>
</svg>
