<svg width="19" height="11" viewBox="0 0 19 11" fill="none" xmlns="http://www.w3.org/2000/svg">
<path d="M9.49453 11C5.40975 10.8321 2.25619 9.19358 0.137629 5.91353C-0.0506015 5.62274 -0.0428741 5.33921 0.143149 5.04842C1.88636 2.32091 4.43382 0.642529 7.81591 0.133519C9.9633 -0.197698 12.1672 0.0907345 14.1363 0.960698C16.1054 1.83066 17.747 3.2412 18.8443 5.00592C19.0535 5.34076 19.0524 5.64192 18.8382 5.9721C17.0674 8.70203 14.4857 10.3317 11.0931 10.8611C10.5737 10.9425 10.0405 10.9549 9.49453 11ZM9.51496 1.56155C7.18222 1.55429 5.26458 3.32079 5.26127 5.48175C5.25795 7.64271 7.17062 9.40921 9.50668 9.41025C11.8333 9.41025 13.7344 7.65826 13.7493 5.49886C13.7642 3.33945 11.8538 1.5688 9.51496 1.56155Z" fill="#979798" fill-opacity="0.75"/>
<path d="M6.65384 5.49196C6.65108 4.03563 7.92334 2.84786 9.49641 2.84786C11.0695 2.84786 12.3528 4.02526 12.3561 5.47745C12.3594 6.92963 11.0811 8.12155 9.51242 8.12155C7.94376 8.12155 6.6566 6.94363 6.65384 5.49196Z" fill="#979798" fill-opacity="0.75"/>
</svg>
