<svg width="25" height="33" viewBox="0 0 25 33" fill="none" xmlns="http://www.w3.org/2000/svg">
<path d="M2.54857 30.0738C2.54097 30.0846 2.53177 30.0943 2.5213 30.1026L2.50498 30.0529H2.52948L2.54857 30.0738Z" fill="#91929D"/>
<path d="M22.426 30.1653C22.426 30.1889 22.3988 30.2124 22.3824 30.2359V30.1679L22.426 30.1653Z" fill="#91929D"/>
<path d="M24.9754 29.0906V6.58837C25.0335 6.08683 24.9691 5.57919 24.7874 5.10566C24.6666 4.64843 24.418 4.23158 24.0684 3.90014C23.7641 3.54452 23.3816 3.25791 22.9484 3.0608C22.5152 2.86369 22.042 2.76097 21.5626 2.75999C20.179 2.72861 18.7926 2.7443 17.4062 2.75999C17.3161 2.77095 17.2246 2.7565 17.1429 2.71843C17.0612 2.68036 16.9928 2.6203 16.946 2.54556C16.8654 2.41453 16.758 2.3006 16.6301 2.21069C16.5023 2.12078 16.3568 2.05677 16.2024 2.02256C15.8729 1.94506 15.5316 1.92469 15.1946 1.96241C14.9767 1.96241 14.8542 1.92057 14.8051 1.70091C14.7578 1.44551 14.6381 1.20755 14.4592 1.01316C13.5931 -0.273427 11.5531 -0.349259 10.6461 0.869337C10.4682 1.04044 10.338 1.25177 10.2675 1.48387C10.2048 2.00687 9.8317 2.00687 9.42042 1.96503C9.33983 1.95718 9.25861 1.95718 9.17801 1.96503C8.67958 2.0121 8.24652 2.16638 7.99867 2.62401C7.90879 2.78091 7.75351 2.75999 7.60099 2.75999C6.21463 2.75999 4.82827 2.73907 3.44192 2.75999C2.94554 2.76131 2.45594 2.87045 2.00972 3.07922C1.56351 3.28799 1.17227 3.59098 0.865325 3.96551C0.513673 4.32278 0.269018 4.76457 0.157174 5.24426C0.0324055 5.58999 -0.0149319 5.95713 0.0182638 6.32164V27.7464C0.0182638 28.157 -0.000801964 28.5676 0.0182638 28.9781C-0.0200479 29.3539 0.00199599 29.7332 0.0836295 30.1026C0.129307 30.5068 0.258598 30.8982 0.463921 31.2539C0.669244 31.6095 0.94647 31.9222 1.27933 32.1737C1.87119 32.7104 2.65786 33.004 3.47187 32.9922C9.48758 33.0026 15.5042 33.0026 21.5217 32.9922C22.0231 32.9946 22.517 32.8749 22.9571 32.6444C23.2295 32.5005 23.461 32.307 23.7334 32.171C24.3211 31.7269 24.7231 31.095 24.8664 30.3902C24.9932 29.9684 25.0303 29.5264 24.9754 29.0906ZM8.47801 3.36929C8.46176 3.24787 8.48122 3.12451 8.53416 3.01314C8.5871 2.90177 8.67145 2.80684 8.77764 2.73907C9.24066 2.54033 9.73362 2.65016 10.213 2.63185C10.6924 2.61355 10.7577 2.57955 10.8068 2.10885C10.843 1.92397 10.8912 1.74143 10.9511 1.56231C10.9609 1.55148 10.9699 1.54013 10.9784 1.52832L11.3406 1.09684C11.3479 1.08577 11.3561 1.07528 11.3651 1.06546C12.2776 0.498005 12.8822 0.542463 13.7565 1.19883C13.7629 1.20903 13.7702 1.21865 13.7783 1.22759C14.0296 1.52422 14.173 1.89151 14.1869 2.2736C14.1869 2.5351 14.3475 2.64231 14.6145 2.64754C15.0961 2.62489 15.5788 2.63888 16.058 2.68938C16.2087 2.76209 16.3323 2.87778 16.4118 3.02058C16.4912 3.16337 16.5228 3.32629 16.502 3.48697C16.502 3.70663 16.502 3.9289 16.502 4.14857V4.65588L16.3386 4.97491C16.3374 4.98008 16.3374 4.98543 16.3386 4.9906C16.1307 5.13458 15.8784 5.20733 15.6223 5.19718C13.5359 5.19718 11.4478 5.19718 9.35778 5.19718C9.10148 5.20857 8.84879 5.1357 8.64145 4.9906L8.47531 4.66895C8.47804 4.21394 8.48345 3.79292 8.47801 3.36929ZM22.6031 29.0539C22.628 29.4323 22.5676 29.8114 22.426 30.1653C22.426 30.1889 22.3988 30.2124 22.3824 30.2359C22.2287 30.3968 22.0391 30.5222 21.8278 30.6028C21.6165 30.6834 21.389 30.7171 21.1622 30.7014C15.3517 30.7014 9.55115 30.7014 3.7606 30.7014C3.51736 30.7176 3.27403 30.6709 3.05604 30.566C2.83805 30.4611 2.65337 30.302 2.52131 30.1052L2.50499 30.0555C2.32795 29.4619 2.43963 28.8526 2.40967 28.2511C2.40967 28.0838 2.40965 27.919 2.39331 27.7517V6.32687H2.37426L2.39331 6.29811C2.395 5.97655 2.50808 5.66468 2.71472 5.41161C2.72313 5.3998 2.73222 5.38845 2.74195 5.37762C3.04311 5.1433 3.42564 5.02742 3.81234 5.05336C5.05161 5.05336 6.29089 5.05336 7.52744 5.05336C7.66666 5.03156 7.80947 5.04882 7.93872 5.10304L7.98504 5.11612H7.94963C8.05878 5.33756 8.23291 5.52358 8.45064 5.65134C8.66838 5.77909 8.92024 5.843 9.17528 5.83524C11.3942 5.8457 13.614 5.8457 15.8347 5.83524C16.0879 5.84466 16.3383 5.78091 16.5534 5.65224C16.7685 5.52357 16.9385 5.33591 17.0413 5.11351L16.9868 5.09782C17.0088 5.08737 17.0331 5.08199 17.0576 5.08212C17.2742 5.03814 17.4965 5.02668 17.7167 5.04813C18.8907 5.04813 20.0646 5.04813 21.2412 5.04813C21.5442 5.03932 21.8439 5.11079 22.1073 5.25471L22.1373 5.28086C22.5404 5.60512 22.6112 6.04968 22.6031 6.52299V29.0539Z" fill="#91929D"/>
<path d="M17.0576 5.08735L17.0413 5.11873L16.9868 5.10304C17.0088 5.0926 17.033 5.08723 17.0576 5.08735Z" fill="#91929D"/>
<path d="M22.1373 5.28086L22.1019 5.28086C22.1019 5.28086 22.1019 5.25994 22.1019 5.2521L22.1373 5.28086Z" fill="#91929D"/>
<path d="M2.74194 5.37239C2.74037 5.38454 2.74037 5.39684 2.74194 5.40899H2.72558C2.73036 5.39653 2.73583 5.38431 2.74194 5.37239Z" fill="#91929D"/>
<path d="M7.98504 5.11612H7.94963C7.94963 5.11612 7.94962 5.11612 7.94962 5.0952L7.98504 5.11612Z" fill="#91929D"/>
<path d="M2.39875 27.7307V27.7464V27.7203C2.39875 27.7203 2.39875 27.7281 2.39875 27.7307Z" fill="#91929D"/>
<path d="M2.54857 30.0738C2.54097 30.0846 2.53177 30.0943 2.5213 30.1026L2.50498 30.0529H2.52948L2.54857 30.0738Z" fill="#91929D"/>
<path d="M22.603 25.2962V25.3197V25.3066C22.6023 25.3032 22.6023 25.2996 22.603 25.2962Z" fill="#91929D"/>
<path d="M22.6031 27.5425V27.5634C22.6031 27.5634 22.6003 27.5477 22.6031 27.5425Z" fill="#91929D"/>
<path d="M2.39875 27.0901V27.0639C2.39981 27.0726 2.39981 27.0814 2.39875 27.0901Z" fill="#91929D"/>
<path d="M22.603 25.2962V25.3197V25.3066C22.6023 25.3032 22.6023 25.2996 22.603 25.2962Z" fill="#91929D"/>
<path d="M22.6031 10.6076V10.6338C22.6018 10.6269 22.6018 10.6198 22.6031 10.6129V10.6076Z" fill="#91929D"/>
<path d="M22.6031 18.0447V18.0683C22.6011 18.0605 22.6011 18.0525 22.6031 18.0447Z" fill="#91929D"/>
<path d="M22.1373 5.28086L22.1019 5.28086C22.1019 5.28086 22.1019 5.25994 22.1019 5.2521L22.1373 5.28086Z" fill="#91929D"/>
<path d="M22.6031 6.52299L22.6031 6.54914C22.6012 6.54052 22.6012 6.53162 22.6031 6.52299Z" fill="#91929D"/>
<path d="M22.6031 27.5425V27.5634C22.6031 27.5634 22.6003 27.5477 22.6031 27.5425Z" fill="#91929D"/>
<path d="M22.603 29.0252V29.0513C22.6015 29.0427 22.6015 29.0338 22.603 29.0252Z" fill="#91929D"/>
<path d="M22.6031 18.0447V18.0683C22.6011 18.0605 22.6011 18.0525 22.6031 18.0447Z" fill="#91929D"/>
<path d="M22.6031 10.6076V10.6338C22.6018 10.6269 22.6018 10.6198 22.6031 10.6129V10.6076Z" fill="#91929D"/>
<path d="M22.6031 6.52299L22.6031 6.54914C22.6012 6.54052 22.6012 6.53162 22.6031 6.52299Z" fill="#91929D"/>
<path d="M22.426 30.1653C22.426 30.1889 22.3988 30.2124 22.3824 30.2359V30.1679L22.426 30.1653Z" fill="#91929D"/>
<path d="M22.603 29.0252V29.0513C22.6015 29.0427 22.6015 29.0338 22.603 29.0252Z" fill="#91929D"/>
<path d="M2.74194 5.37239C2.74037 5.38454 2.74037 5.39684 2.74194 5.40899H2.72558C2.73036 5.39653 2.73583 5.38431 2.74194 5.37239Z" fill="#91929D"/>
<path d="M11.3869 1.05239C11.3869 1.06546 11.3869 1.07854 11.3869 1.089C11.386 1.07681 11.386 1.06458 11.3869 1.05239Z" fill="#91929D"/>
<path d="M13.7865 1.21452H13.7456C13.7497 1.20053 13.7561 1.18729 13.7647 1.1753C13.7704 1.18911 13.7777 1.20227 13.7865 1.21452Z" fill="#91929D"/>
<path d="M13.7865 1.21452H13.7456C13.7497 1.20053 13.7561 1.18729 13.7647 1.1753C13.7704 1.18911 13.7777 1.20227 13.7865 1.21452Z" fill="#91929D"/>
<path d="M10.9893 1.53616L10.9593 1.55185C10.969 1.54101 10.9781 1.52967 10.9865 1.51786C10.9886 1.52376 10.9895 1.52995 10.9893 1.53616Z" fill="#91929D"/>
<path d="M2.39875 27.7307V27.7464V27.7203C2.39875 27.7203 2.39875 27.7281 2.39875 27.7307Z" fill="#91929D"/>
<path d="M2.39875 27.0901V27.0639C2.39981 27.0726 2.39981 27.0814 2.39875 27.0901Z" fill="#91929D"/>
<path d="M10.9893 1.53616L10.9593 1.55185C10.969 1.54101 10.9781 1.52967 10.9865 1.51786C10.9886 1.52376 10.9895 1.52995 10.9893 1.53616Z" fill="#91929D"/>
<path d="M11.3869 1.05239C11.3869 1.06546 11.3869 1.07854 11.3869 1.089C11.386 1.07681 11.386 1.06458 11.3869 1.05239Z" fill="#91929D"/>
<path d="M2.71471 5.40638H2.73103C2.72946 5.39423 2.72946 5.38193 2.73103 5.36977C2.72493 5.38169 2.71949 5.39392 2.71471 5.40638ZM22.5976 10.6129C22.5964 10.6198 22.5964 10.6269 22.5976 10.6338V10.6076V10.6129ZM22.5976 18.063V18.0395C22.5956 18.0472 22.5956 18.0553 22.5976 18.063ZM22.5976 25.3119V25.3249V25.3014C22.5925 25.3062 22.5895 25.3128 22.5894 25.3197L22.5976 25.3119ZM22.5976 27.5634V27.5425C22.5976 27.5425 22.6003 27.5529 22.5976 27.5582V27.5634ZM22.5976 29.0539V29.0278C22.5966 29.0347 22.5966 29.0418 22.5976 29.0487V29.0539ZM22.3906 30.1732V30.2412C22.4069 30.2176 22.4206 30.1941 22.4342 30.1705L22.3906 30.1732ZM2.39875 27.7203V27.7464V27.7307C2.39875 27.7307 2.39875 27.7229 2.39875 27.7203ZM2.39875 27.0718V27.0979C2.39981 27.0892 2.39981 27.0805 2.39875 27.0718ZM2.53493 30.0555H2.51043L2.52675 30.1052C2.53722 30.0969 2.54639 30.0872 2.55398 30.0764L2.53493 30.0555ZM22.6003 6.5413V6.51515C22.5976 6.5236 22.5966 6.53249 22.5976 6.5413H22.6003ZM22.11 5.25471C22.11 5.25471 22.11 5.27302 22.11 5.28348H22.1455L22.11 5.25471ZM7.94689 5.10304C7.94689 5.10304 7.94689 5.11611 7.94689 5.12396H7.9823L7.94689 5.10304ZM16.995 5.10304L17.0494 5.11873L17.0658 5.08735C17.0385 5.08593 17.0113 5.09134 16.9868 5.10304L16.995 5.10304ZM20.7455 25.8244C20.642 25.8078 20.537 25.8017 20.4322 25.8061H11.3569C11.2293 25.7931 11.1002 25.8064 10.9784 25.8453C10.9126 25.8704 10.8567 25.9147 10.8186 25.972C10.7805 26.0292 10.762 26.0965 10.7659 26.1644C10.7646 26.2382 10.7916 26.3099 10.8418 26.3659C10.8921 26.4218 10.962 26.4581 11.0383 26.4677C11.154 26.4799 11.2705 26.4843 11.3869 26.4808H20.3914C20.4958 26.486 20.6003 26.486 20.7046 26.4808C20.746 26.4805 20.7869 26.4721 20.8248 26.4563C20.8627 26.4405 20.897 26.4175 20.9254 26.3887C20.9539 26.3599 20.976 26.3259 20.9905 26.2887C21.005 26.2515 21.0115 26.2119 21.0097 26.1722C21.0162 26.1321 21.0143 26.0912 21.004 26.0518C20.9938 26.0125 20.9754 25.9755 20.95 25.943C20.9247 25.9106 20.8927 25.8834 20.8562 25.863C20.8196 25.8426 20.7792 25.8295 20.7373 25.8244H20.7455ZM20.8762 19.1744C20.7514 19.1125 20.6092 19.0905 20.4704 19.1117H15.3826C13.9908 19.1117 12.5989 19.1117 11.2071 19.1117C10.9647 19.1117 10.7741 19.1901 10.7713 19.4412C10.7686 19.6922 10.9539 19.7837 11.1963 19.7863H20.4241C20.5523 19.8012 20.6822 19.7896 20.8054 19.7523C20.8658 19.7309 20.9181 19.6925 20.9555 19.6421C20.9929 19.5917 21.0137 19.5318 21.0151 19.4699C21.0213 19.4124 21.0109 19.3544 20.9849 19.3023C20.959 19.2501 20.9185 19.2059 20.8681 19.1744H20.8762ZM17.8638 21.0049C15.6685 21.0049 13.4714 21.0049 11.2725 21.0049C11.0001 21.0049 10.7741 21.052 10.7713 21.3423C10.7686 21.6325 11.0056 21.6848 11.2671 21.6848C12.3565 21.6848 13.4651 21.6848 14.5627 21.6848C15.6604 21.6848 16.7825 21.6848 17.8938 21.6848C18.128 21.6848 18.3269 21.6325 18.3377 21.3684C18.3405 21.0625 18.1171 21.0102 17.8556 21.0102L17.8638 21.0049ZM17.842 27.7203H11.2208C10.8994 27.7203 10.7196 27.8746 10.7713 28.0968C10.8231 28.3191 11.0219 28.3923 11.2507 28.3923H17.8366C18.0872 28.3923 18.3323 28.3557 18.335 28.0498C18.3377 27.7438 18.0844 27.7255 17.8339 27.7255L17.842 27.7203ZM8.39085 14.151V14.2033H8.48617C8.45624 14.1829 8.42432 14.1654 8.39085 14.151ZM8.39085 9.83883C8.39085 9.85713 8.39085 9.87544 8.39085 9.89375H8.48345C8.4548 9.8722 8.42375 9.85377 8.39085 9.83883ZM8.40176 15.618C8.43716 15.6938 8.40176 15.8351 8.54067 15.8141C8.48619 15.7592 8.49979 15.686 8.4889 15.618H8.40176ZM16.6 14.959C16.5671 14.9754 16.5353 14.9937 16.5047 15.0139H16.6C16.5988 15.0088 16.5988 15.0034 16.6 14.9982C16.6 14.9982 16.6028 14.9721 16.6028 14.959H16.6ZM16.502 10.1631C16.5347 10.184 16.5673 10.1997 16.5973 10.2154V10.1631H16.502ZM16.502 12.8566H16.5946C16.5959 12.8391 16.5959 12.8217 16.5946 12.8043C16.5639 12.8191 16.5348 12.8366 16.5074 12.8566H16.502ZM13.811 9.3812H13.83V9.3629L13.811 9.3812ZM12.2694 10.4272C12.4633 10.4442 12.6584 10.4442 12.8522 10.4272H12.2694ZM11.9561 8.47641H12.5908C12.3834 8.43336 12.1686 8.43426 11.9616 8.47902L11.9561 8.47641ZM11.79 10.2703C11.79 10.3488 11.8145 10.422 11.9235 10.4194C11.8912 10.407 11.8626 10.3872 11.8402 10.3617C11.8179 10.3361 11.8025 10.3056 11.7955 10.2729L11.79 10.2703ZM11.79 9.18769V8.66469C11.7885 8.65252 11.7885 8.64024 11.79 8.62808C11.749 8.81351 11.7499 9.00525 11.7927 9.19031L11.79 9.18769ZM11.79 9.31321C11.79 9.32629 11.79 9.33936 11.79 9.35244V9.38382C11.79 9.51718 11.79 9.64532 11.79 9.78653V9.31321ZM11.1581 9.35505V9.37859H11.1826L11.1581 9.35505ZM8.96554 25.6806C8.78033 25.4191 8.56789 25.5263 8.3609 25.6806C7.73445 26.1304 7.09982 26.5697 6.47609 27.0247C6.32084 27.1371 6.23371 27.1476 6.12476 26.9776C5.98585 26.758 5.82514 26.5514 5.6699 26.3396C5.51465 26.1277 5.37847 26.0624 5.16329 26.1983C4.94812 26.3343 4.94812 26.5252 5.09248 26.7213L5.86872 27.7987C5.90327 27.8552 5.95395 27.901 6.01478 27.9307C6.0756 27.9603 6.14402 27.9726 6.21191 27.9661C6.32227 27.9576 6.42572 27.9112 6.50332 27.8353L8.7885 26.2167C8.9846 26.0728 9.14259 25.9107 8.96827 25.678L8.96554 25.6806ZM3.99755 19.3784C3.98121 19.5379 3.96759 19.6974 3.96487 19.8569C3.94308 20.2384 3.94308 20.6208 3.96487 21.0023C3.96637 21.1458 3.97728 21.289 3.99755 21.4312C3.99755 21.0886 3.99754 20.7487 4.0166 20.4061V20.3878C4.01388 20.0478 4.00572 19.7105 4.00028 19.3758L3.99755 19.3784ZM4.6921 21.4704C4.6921 20.7565 4.6921 20.04 4.6921 19.3261C4.57498 19.6687 4.67573 20.0217 4.63216 20.3721C4.63216 20.3721 4.63216 20.3904 4.63216 20.3982C4.68118 20.7591 4.55864 21.1357 4.69483 21.4756L4.6921 21.4704ZM3.97032 27.6732V27.7674C3.96824 27.877 3.97828 27.9866 4.00028 28.0942C3.98666 27.9609 3.97577 27.8197 3.97032 27.6732Z" fill="#91929D"/>
<path d="M12.5091 1.59893C12.4362 1.59505 12.3632 1.60528 12.2945 1.62901C12.2259 1.65273 12.1628 1.68947 12.1092 1.73704C12.0556 1.7846 12.0125 1.84203 11.9825 1.9059C11.9524 1.96977 11.9361 2.03879 11.9344 2.10885C11.93 2.18089 11.9407 2.25304 11.9659 2.32103C11.991 2.38901 12.0302 2.45143 12.081 2.50461C12.1318 2.55778 12.1932 2.60061 12.2616 2.63055C12.33 2.6605 12.404 2.67695 12.4791 2.67893C12.5546 2.6807 12.6297 2.6678 12.6999 2.64103C12.7701 2.61426 12.834 2.57415 12.8876 2.52311C12.9413 2.47208 12.9837 2.41116 13.0122 2.34402C13.0408 2.27688 13.0549 2.2049 13.0538 2.13238C13.0552 2.06283 13.0422 1.99369 13.0155 1.92903C12.9888 1.86436 12.9489 1.80547 12.8982 1.75579C12.8474 1.70611 12.7869 1.66665 12.7201 1.63972C12.6533 1.61278 12.5815 1.59891 12.5091 1.59893ZM12.5091 1.59893C12.4362 1.59505 12.3632 1.60528 12.2945 1.62901C12.2259 1.65273 12.1628 1.68947 12.1092 1.73704C12.0556 1.7846 12.0125 1.84203 11.9825 1.9059C11.9524 1.96977 11.9361 2.03879 11.9344 2.10885C11.93 2.18089 11.9407 2.25304 11.9659 2.32103C11.991 2.38901 12.0302 2.45143 12.081 2.50461C12.1318 2.55778 12.1932 2.60061 12.2616 2.63055C12.33 2.6605 12.404 2.67695 12.4791 2.67893C12.5546 2.6807 12.6297 2.6678 12.6999 2.64103C12.7701 2.61426 12.834 2.57415 12.8876 2.52311C12.9413 2.47208 12.9837 2.41116 13.0122 2.34402C13.0408 2.27688 13.0549 2.2049 13.0538 2.13238C13.0552 2.06283 13.0422 1.99369 13.0155 1.92903C12.9888 1.86436 12.9489 1.80547 12.8982 1.75579C12.8474 1.70611 12.7869 1.66665 12.7201 1.63972C12.6533 1.61278 12.5815 1.59891 12.5091 1.59893Z" fill="#91929D"/>
<path d="M13.0592 2.13238C13.0604 2.2049 13.0462 2.27688 13.0177 2.34402C12.9891 2.41116 12.9467 2.47208 12.8931 2.52311C12.8394 2.57415 12.7756 2.61426 12.7054 2.64103C12.6352 2.6678 12.5601 2.6807 12.4846 2.67893C12.4094 2.67695 12.3355 2.6605 12.2671 2.63055C12.1987 2.60061 12.1373 2.55778 12.0865 2.50461C12.0357 2.45143 11.9965 2.38901 11.9713 2.32103C11.9461 2.25304 11.9354 2.18089 11.9398 2.10885C11.9415 2.03879 11.9579 1.96977 11.9879 1.9059C12.018 1.84203 12.0611 1.7846 12.1147 1.73704C12.1683 1.68947 12.2313 1.65273 12.3 1.62901C12.3687 1.60528 12.4416 1.59505 12.5145 1.59893C12.587 1.59891 12.6587 1.61278 12.7255 1.63972C12.7923 1.66665 12.8529 1.70611 12.9036 1.75579C12.9543 1.80547 12.9942 1.86436 13.0209 1.92903C13.0477 1.99369 13.0607 2.06283 13.0592 2.13238Z" fill="#91929D"/>
<path d="M10.9893 1.53616L10.9593 1.55185C10.969 1.54101 10.9781 1.52967 10.9865 1.51786C10.9886 1.52376 10.9895 1.52995 10.9893 1.53616Z" fill="#91929D"/>
<path d="M11.3869 1.05239C11.3869 1.06546 11.3869 1.07854 11.3869 1.089C11.386 1.07681 11.386 1.06458 11.3869 1.05239Z" fill="#91929D"/>
<path d="M13.7865 1.21452H13.7456C13.7497 1.20053 13.7561 1.18729 13.7647 1.1753C13.7704 1.18911 13.7777 1.20227 13.7865 1.21452Z" fill="#91929D"/>
<path d="M7.98504 5.11612H7.94963C7.94963 5.11612 7.94962 5.11612 7.94962 5.0952L7.98504 5.11612Z" fill="#91929D"/>
<path d="M17.0576 5.08735L17.0413 5.11873L16.9868 5.10304C17.0088 5.0926 17.033 5.08723 17.0576 5.08735Z" fill="#91929D"/>
<path d="M17.1366 10.1526C17.1665 9.70418 17.1665 9.25435 17.1366 8.8059C17.1241 8.55145 17.0109 8.3112 16.82 8.13426C16.6291 7.95733 16.375 7.85708 16.1098 7.85403C13.7075 7.84357 11.3043 7.84357 8.90017 7.85403C8.64703 7.85581 8.4034 7.94684 8.21559 8.1098C8.02778 8.27276 7.90889 8.49629 7.88152 8.73791C7.83521 9.12062 7.82336 9.50646 7.84611 9.89113V15.618C7.72899 16.3214 8.40719 16.8 9.04181 16.7948C11.3324 16.7765 13.6258 16.7948 15.9164 16.7948C15.9989 16.7987 16.0817 16.7987 16.1642 16.7948C16.4098 16.7684 16.6386 16.6626 16.8133 16.4949C16.988 16.3272 17.0982 16.1074 17.1257 15.8717C17.1475 15.5919 17.1257 15.3121 17.1257 15.0296L17.1366 10.1526ZM11.7954 8.62547C11.81 8.59433 11.8303 8.56597 11.8554 8.54178C11.8856 8.51242 11.9217 8.48928 11.9616 8.47379C12.1706 8.42911 12.3872 8.42911 12.5962 8.47379H13.032C13.0857 8.47379 13.1372 8.49409 13.1755 8.53031C13.2137 8.56652 13.2356 8.61575 13.2363 8.66731V10.2363C13.2356 10.2881 13.2138 10.3376 13.1757 10.3742C13.1375 10.4109 13.086 10.4318 13.032 10.4324H12.8577C12.6638 10.4494 12.4687 10.4494 12.2748 10.4324C12.1623 10.4259 12.0496 10.4259 11.9371 10.4324C11.8281 10.4324 11.8091 10.3618 11.8036 10.2834V10.2023C11.8036 10.069 11.8036 9.94081 11.8036 9.7996C11.8036 9.65839 11.8036 9.5381 11.8036 9.39689V9.36813C11.8036 9.35505 11.8036 9.34198 11.8036 9.3289C11.8064 9.28711 11.8064 9.24518 11.8036 9.20338C11.7578 9.01618 11.755 8.82165 11.7954 8.63331V8.62547ZM8.48889 9.89113H8.39084C8.39084 9.87283 8.39084 9.85452 8.39084 9.83622C8.42563 9.85082 8.45853 9.86924 8.48889 9.89113ZM8.39357 14.1484C8.42703 14.1628 8.45895 14.1803 8.48889 14.2007H8.39084L8.39357 14.1484ZM16.4448 15.8168C16.4008 15.9169 16.3234 16.0002 16.2249 16.0537C16.1263 16.1071 16.0121 16.1277 15.9 16.1122C13.623 16.1122 11.346 16.1122 9.06904 16.1122C8.8348 16.1122 8.62237 16.073 8.54339 15.8194C8.4072 15.8403 8.43988 15.6991 8.40448 15.6232H8.48889C8.48889 15.6912 8.48891 15.7645 8.54339 15.8194C8.54339 13.5827 8.54339 11.346 8.54339 9.10924C8.54339 8.64116 8.65232 8.53656 9.13986 8.53656C9.68459 8.53656 10.2593 8.53656 10.8177 8.53656C11.09 8.53656 11.1663 8.62285 11.1445 8.86604C11.1336 9.03324 11.1336 9.20093 11.1445 9.36813L11.169 9.40212H11.1445C11.1445 9.73946 11.1254 10.0794 11.1445 10.4167C11.1387 10.5009 11.1514 10.5852 11.1817 10.6644C11.2119 10.7435 11.2591 10.8157 11.3201 10.8763C11.3812 10.9369 11.4548 10.9846 11.5362 11.0162C11.6176 11.0478 11.705 11.0628 11.7927 11.06C12.2585 11.0731 12.7242 11.0731 13.19 11.06C13.2779 11.0624 13.3653 11.0471 13.4467 11.0152C13.5281 10.9832 13.6017 10.9353 13.6627 10.8746C13.7237 10.8138 13.7708 10.7414 13.801 10.6621C13.8313 10.5828 13.8439 10.4984 13.8382 10.4141C13.8382 10.0742 13.8382 9.73423 13.8382 9.39428H13.8192L13.8382 9.36551C13.8382 9.2766 13.8382 9.18769 13.8382 9.10401C13.8382 8.54701 13.8382 8.54701 14.4374 8.54701C14.9059 8.54701 15.3716 8.54701 15.8374 8.54701C16.3031 8.54701 16.4366 8.65161 16.4366 9.1197C16.4439 11.3459 16.4466 13.5792 16.4448 15.8194V15.8168ZM16.6 10.1605V10.2128C16.5701 10.1971 16.5374 10.1814 16.5047 10.1605H16.6ZM16.6 15.0113H16.5047C16.5352 14.9911 16.5671 14.9728 16.6 14.9564C16.6 14.9695 16.6 14.9826 16.6 14.9956C16.5992 15.0019 16.6001 15.0082 16.6028 15.0139L16.6 15.0113ZM16.6 12.8539H16.5074C16.5374 12.8336 16.5693 12.8161 16.6028 12.8016C16.6033 12.82 16.6024 12.8383 16.6 12.8566V12.8539Z" fill="#91929D"/>
<path d="M8.4889 14.2033L8.39085 14.2033V14.151C8.42526 14.1653 8.4581 14.1828 8.4889 14.2033Z" fill="#91929D"/>
<path d="M8.48889 9.89113H8.39084C8.39084 9.87283 8.39084 9.85452 8.39084 9.83622C8.42563 9.85082 8.45853 9.86924 8.48889 9.89113Z" fill="#91929D"/>
<path d="M8.54339 15.8141C8.40721 15.8351 8.43989 15.6938 8.40448 15.618L8.4889 15.618C8.49979 15.686 8.4862 15.7592 8.54339 15.8141Z" fill="#91929D"/>
<path d="M11.1854 9.38643H11.1608V9.3629L11.1854 9.38643Z" fill="#91929D"/>
<path d="M11.8036 9.36813C11.8036 9.35505 11.8036 9.34198 11.8036 9.3289L11.8036 9.37074L11.8036 9.36813Z" fill="#91929D"/>
<path d="M11.7954 8.63331C11.794 8.64547 11.794 8.65775 11.7955 8.66992V9.19292C11.7539 9.00851 11.7539 8.81771 11.7954 8.63331Z" fill="#91929D"/>
<path d="M12.5962 8.47641H11.9616C12.1706 8.43173 12.3872 8.43173 12.5962 8.47641Z" fill="#91929D"/>
<path d="M13.8382 9.35244V9.37074H13.8192L13.8382 9.35244Z" fill="#91929D"/>
<path d="M16.6 10.1526V10.2049C16.5701 10.1892 16.5374 10.1736 16.5047 10.1526H16.6Z" fill="#91929D"/>
<path d="M16.6028 12.8043C16.6041 12.8217 16.6041 12.8391 16.6028 12.8566H16.5102C16.5392 12.8363 16.5702 12.8188 16.6028 12.8043Z" fill="#91929D"/>
<path d="M16.6 14.9982C16.5988 15.0034 16.5988 15.0088 16.6 15.0139H16.5047C16.5353 14.9937 16.5671 14.9754 16.6 14.959C16.6028 14.9721 16.6 14.9852 16.6 14.9982Z" fill="#91929D"/>
<path d="M8.54339 15.8141C8.40721 15.8351 8.43989 15.6938 8.40448 15.618L8.4889 15.618C8.49979 15.686 8.4862 15.7592 8.54339 15.8141Z" fill="#91929D"/>
<path d="M16.6 14.9982C16.5988 15.0034 16.5988 15.0088 16.6 15.0139H16.5047C16.5353 14.9937 16.5671 14.9754 16.6 14.959C16.6028 14.9721 16.6 14.9852 16.6 14.9982Z" fill="#91929D"/>
<path d="M21.0069 26.1644C21.0088 26.204 21.0023 26.2436 20.9878 26.2808C20.9733 26.318 20.9512 26.3521 20.9227 26.3809C20.8942 26.4097 20.86 26.4327 20.8221 26.4485C20.7841 26.4643 20.7432 26.4726 20.7019 26.4729C20.5976 26.4782 20.493 26.4782 20.3887 26.4729H11.3869C11.2705 26.4765 11.154 26.4721 11.0383 26.4598C10.962 26.4502 10.8921 26.414 10.8418 26.358C10.7916 26.3021 10.7646 26.2304 10.7659 26.1565C10.762 26.0887 10.7805 26.0214 10.8186 25.9641C10.8567 25.9069 10.9126 25.8626 10.9784 25.8375C11.1002 25.7986 11.2293 25.7852 11.357 25.7983H20.4322C20.537 25.7938 20.642 25.8 20.7455 25.8166C20.8282 25.8294 20.9022 25.8733 20.9512 25.9385C21.0002 26.0037 21.0203 26.0849 21.0069 26.1644Z" fill="#91929D"/>
<path d="M21.0069 19.4673C21.0055 19.5291 20.9847 19.5891 20.9473 19.6395C20.9099 19.6899 20.8576 19.7283 20.7972 19.7497C20.6741 19.787 20.5441 19.7986 20.4159 19.7837H11.1881C10.9457 19.7837 10.7604 19.6844 10.7632 19.4385C10.7659 19.1927 10.9566 19.1091 11.199 19.1091C12.5908 19.1091 13.9826 19.1091 15.3744 19.1091H20.4622C20.601 19.0879 20.7432 19.1099 20.8681 19.1718C20.917 19.2043 20.9559 19.2489 20.9803 19.301C21.0048 19.3531 21.014 19.4106 21.0069 19.4673Z" fill="#91929D"/>
<path d="M18.3296 21.3684C18.3296 21.6299 18.1198 21.6848 17.8856 21.6848C16.7743 21.6848 15.6631 21.6848 14.5545 21.6848C13.446 21.6848 12.3593 21.6848 11.2589 21.6848C10.9865 21.6848 10.7604 21.6325 10.7632 21.3423C10.7659 21.052 11.0056 21.0049 11.2643 21.0049C13.4614 21.0049 15.6585 21.0049 17.8556 21.0049C18.1171 21.0102 18.3405 21.0625 18.3296 21.3684Z" fill="#91929D"/>
<path d="M18.3268 28.0576C18.3268 28.3636 18.079 28.4002 17.8284 28.4002H11.2425C11.0137 28.4002 10.8149 28.3479 10.7632 28.1047C10.7114 27.8615 10.8912 27.7281 11.2126 27.7281H17.8339C18.0844 27.7255 18.3323 27.7438 18.3268 28.0576Z" fill="#91929D"/>
<path d="M8.06674 27.9347C8.09602 28.1812 8.02847 28.4292 7.87736 28.6304C7.72624 28.8316 7.50243 28.9714 7.24963 29.0226C6.43614 29.1269 5.61181 29.1269 4.79832 29.0226C4.57105 28.9894 4.3643 28.8774 4.21724 28.7078C4.07018 28.5382 3.99299 28.3227 4.00026 28.1021C3.98665 27.9609 3.97575 27.8197 3.97031 27.6811C3.93175 27.1084 3.94359 26.5337 4.00572 25.963C4.04368 25.7266 4.17106 25.5119 4.3635 25.3599C4.55594 25.208 4.79992 25.1294 5.04887 25.1393C5.68894 25.1262 6.33175 25.1393 6.97181 25.1393C7.08818 25.1434 7.20352 25.1619 7.315 25.1942C7.36438 25.2012 7.41153 25.2186 7.45314 25.245C7.49476 25.2715 7.52982 25.3064 7.55581 25.3474C7.5818 25.3883 7.59807 25.4342 7.60352 25.4818C7.60898 25.5295 7.60348 25.5777 7.58737 25.623C7.52744 25.8375 7.35855 25.8846 7.14882 25.8506C6.45213 25.7965 5.75261 25.7843 5.05433 25.8139C4.80375 25.8139 4.67573 25.963 4.67846 26.2062C4.67846 26.8783 4.67845 27.5477 4.70024 28.2198C4.76409 28.2846 4.84224 28.3349 4.92895 28.367C5.01566 28.3992 5.10875 28.4123 5.20142 28.4054C5.74615 28.4054 6.27452 28.4054 6.81109 28.4054C7.23054 28.4054 7.32042 28.327 7.35583 27.9243C7.37762 27.7124 7.48111 27.5712 7.69356 27.5686C7.90601 27.566 8.04767 27.7177 8.06674 27.9347Z" fill="#91929D"/>
<path d="M4.00026 28.1021C3.97826 27.9944 3.96824 27.8849 3.97032 27.7752L3.97032 27.6732C3.97577 27.8197 3.98665 27.9609 4.00026 28.1021Z" fill="#91929D"/>
<path d="M8.06944 21.2795C8.08125 21.5524 7.97974 21.8186 7.7872 22.0197C7.59465 22.2207 7.32685 22.3401 7.04264 22.3517C6.35355 22.37 5.66171 22.37 4.97262 22.3517C4.71914 22.344 4.47808 22.2446 4.29775 22.0734C4.11741 21.9022 4.01115 21.6718 4.00028 21.4286C4.00028 21.086 4.00026 20.7461 4.01933 20.4035V20.3852C4.01933 20.0478 4.01934 19.7105 4.00028 19.3758C4.00667 19.1267 4.11422 18.89 4.29997 18.716C4.48572 18.5421 4.73496 18.4448 4.99443 18.4448C5.6699 18.4291 6.35626 18.4448 7.02628 18.4448C7.14228 18.4483 7.25706 18.4686 7.36674 18.505C7.40969 18.5154 7.44992 18.5342 7.48494 18.5602C7.51996 18.5863 7.549 18.619 7.57022 18.6563C7.59145 18.6936 7.60444 18.7348 7.60832 18.7771C7.61221 18.8195 7.6069 18.8622 7.5928 18.9025C7.58569 18.9415 7.57042 18.9788 7.54785 19.0121C7.52528 19.0453 7.49589 19.0738 7.4615 19.0958C7.42712 19.1178 7.38843 19.1329 7.34779 19.1401C7.30716 19.1473 7.26542 19.1465 7.22511 19.1378C6.53874 19.0803 5.86328 19.1378 5.16057 19.1091C5.06773 19.0948 4.97258 19.1085 4.8882 19.1483C4.80382 19.1881 4.73436 19.2521 4.68938 19.3313C4.57226 19.6739 4.67301 20.0269 4.62943 20.3773C4.62943 20.3773 4.62943 20.3956 4.62943 20.4035C4.6839 20.7591 4.56134 21.1252 4.69752 21.4756C4.74276 21.5479 4.8086 21.6063 4.88727 21.6438C4.96594 21.6814 5.05414 21.6965 5.14148 21.6874C5.71618 21.6874 6.28817 21.6874 6.86014 21.6874C7.19243 21.6874 7.37219 21.5672 7.36947 21.2377C7.36947 21.0128 7.47025 20.8611 7.71811 20.8663C7.96596 20.8716 8.064 21.052 8.06944 21.2795Z" fill="#91929D"/>
<path d="M4.03296 20.3852V20.4035C4.03296 20.7461 4.03297 21.086 4.01391 21.4286C3.99364 21.2864 3.98273 21.1432 3.98123 20.9997C3.98123 20.801 3.98122 20.6022 4.00573 20.4035L4.02751 20.3878L4.03296 20.3852Z" fill="#91929D"/>
<path d="M4.62672 20.4035C4.62672 20.4035 4.62672 20.3852 4.62672 20.3773C4.73294 20.7356 4.62672 21.1095 4.68936 21.4678C4.55862 21.1357 4.68119 20.7591 4.62672 20.4035Z" fill="#91929D"/>
<path d="M8.79122 26.2088L6.50604 27.8275C6.42844 27.9033 6.32498 27.9497 6.21462 27.9583C6.14674 27.9648 6.07832 27.9525 6.01749 27.9228C5.95667 27.8931 5.90599 27.8474 5.87144 27.7909L5.09519 26.7135C4.95084 26.5174 4.94539 26.3317 5.16601 26.1905C5.38663 26.0493 5.54188 26.1591 5.67261 26.3317C5.80335 26.5043 5.98854 26.7501 6.12745 26.9698C6.23639 27.1398 6.32356 27.1293 6.47881 27.0168C7.10254 26.5618 7.73717 26.1225 8.36361 25.6727C8.57061 25.5237 8.78305 25.4269 8.96826 25.6727C9.15347 25.9185 8.9846 26.0728 8.79122 26.2088Z" fill="#91929D"/>
<path d="M4.03296 20.3852V20.4035C4.03296 20.4035 4.03295 20.4035 4.03295 20.3878C3.99548 20.2159 3.97992 20.0403 3.98663 19.8648C3.98663 19.7053 4.00297 19.5458 4.01932 19.3862C4.0057 19.7105 4.01389 20.0478 4.03296 20.3852Z" fill="#91929D"/>
<path d="M4.63214 20.3852C4.63096 20.3912 4.63096 20.3974 4.63214 20.4035C4.63214 20.4035 4.63214 20.3852 4.63214 20.3773C4.67572 20.0295 4.57497 19.6765 4.69209 19.3313C4.624 19.6791 4.73564 20.0374 4.63214 20.3852Z" fill="#91929D"/>
<path d="M8.84843 19.4568C8.75583 19.5248 8.6605 19.5824 8.57606 19.6451L6.74027 20.9657C6.12744 21.4024 6.10565 21.3972 5.6508 20.78L5.10606 19.9955C4.97532 19.8177 4.94537 19.6294 5.14965 19.4935C5.19236 19.462 5.2419 19.4401 5.29458 19.4295C5.34726 19.4189 5.40175 19.4198 5.45404 19.4321C5.50632 19.4444 5.55507 19.4678 5.59667 19.5006C5.63827 19.5334 5.67166 19.5747 5.69439 19.6216C5.84691 19.8334 6.01035 20.04 6.14925 20.2596C6.24731 20.4113 6.32901 20.4192 6.47881 20.312C6.86012 20.0348 7.25234 19.7759 7.64183 19.5091C7.91419 19.3052 8.18656 19.0986 8.45893 18.8998C8.49498 18.866 8.53851 18.8405 8.58627 18.825C8.63404 18.8096 8.68479 18.8048 8.73479 18.8108C8.78479 18.8168 8.83276 18.8336 8.87506 18.8599C8.91737 18.8862 8.95295 18.9213 8.97916 18.9626C9.11535 19.1613 9.03364 19.3287 8.84843 19.4568Z" fill="#91929D"/>
<path d="M16.6028 12.8043C16.6041 12.8217 16.6041 12.8391 16.6028 12.8566H16.5102C16.5392 12.8363 16.5702 12.8188 16.6028 12.8043Z" fill="#91929D"/>
<path d="M16.6 14.9982C16.5988 15.0034 16.5988 15.0088 16.6 15.0139H16.5047C16.5353 14.9937 16.5671 14.9754 16.6 14.959C16.6028 14.9721 16.6 14.9852 16.6 14.9982Z" fill="#91929D"/>
<path d="M8.4889 14.2033L8.39085 14.2033V14.151C8.42526 14.1653 8.4581 14.1828 8.4889 14.2033Z" fill="#91929D"/>
<path d="M16.6028 12.8043C16.6041 12.8217 16.6041 12.8391 16.6028 12.8566H16.5102C16.5392 12.8363 16.5702 12.8188 16.6028 12.8043Z" fill="#91929D"/>
<path d="M8.4889 14.2033L8.39085 14.2033V14.151C8.42526 14.1653 8.4581 14.1828 8.4889 14.2033Z" fill="#91929D"/>
<path d="M16.6 10.1526V10.2049C16.5701 10.1892 16.5374 10.1736 16.5047 10.1526H16.6Z" fill="#91929D"/>
<path d="M16.6 10.1526V10.2049C16.5701 10.1892 16.5374 10.1736 16.5047 10.1526H16.6Z" fill="#91929D"/>
<path d="M8.48889 9.89113H8.39084C8.39084 9.87283 8.39084 9.85452 8.39084 9.83622C8.42563 9.85082 8.45853 9.86924 8.48889 9.89113Z" fill="#91929D"/>
<path d="M8.48889 9.89113H8.39084C8.39084 9.87283 8.39084 9.85452 8.39084 9.83622C8.42563 9.85082 8.45853 9.86924 8.48889 9.89113Z" fill="#91929D"/>
<path d="M4.62672 20.4035C4.62672 20.4035 4.62672 20.3852 4.62672 20.3773C4.6703 20.0295 4.56954 19.6765 4.68666 19.3313C4.68666 20.0452 4.68666 20.7617 4.68666 21.4756C4.55864 21.1357 4.68119 20.7591 4.62672 20.4035Z" fill="#91929D"/>
<path d="M4.03296 20.3852V20.4035C4.03296 20.7461 4.03297 21.086 4.01391 21.4286C4.00029 21.2847 3.9894 21.1409 3.98123 20.9997C3.95944 20.6182 3.95945 20.2358 3.98124 19.8543C3.98124 19.6948 4.00031 19.5353 4.01392 19.3758C4.00575 19.7105 4.01389 20.0478 4.03296 20.3852Z" fill="#91929D"/>
<path d="M13.0592 2.13238C13.0604 2.2049 13.0462 2.27688 13.0177 2.34402C12.9891 2.41116 12.9467 2.47208 12.8931 2.52311C12.8394 2.57415 12.7756 2.61426 12.7054 2.64103C12.6352 2.6678 12.5601 2.6807 12.4846 2.67893C12.4094 2.67695 12.3355 2.6605 12.2671 2.63055C12.1987 2.60061 12.1373 2.55778 12.0865 2.50461C12.0357 2.45143 11.9965 2.38901 11.9713 2.32103C11.9461 2.25304 11.9354 2.18089 11.9398 2.10885C11.9415 2.03879 11.9579 1.96977 11.9879 1.9059C12.018 1.84203 12.0611 1.7846 12.1147 1.73704C12.1683 1.68947 12.2313 1.65273 12.3 1.62901C12.3687 1.60528 12.4416 1.59505 12.5145 1.59893C12.587 1.59891 12.6587 1.61278 12.7255 1.63972C12.7923 1.66665 12.8529 1.70611 12.9036 1.75579C12.9543 1.80547 12.9942 1.86436 13.0209 1.92903C13.0477 1.99369 13.0607 2.06283 13.0592 2.13238Z" fill="#91929D"/>
<path d="M11.1854 9.38643H11.1608V9.3629L11.1854 9.38643Z" fill="#91929D"/>
<path d="M13.8382 9.35244V9.37074H13.8192L13.8382 9.35244Z" fill="#91929D"/>
<path d="M11.1854 9.38643H11.1608V9.3629L11.1854 9.38643Z" fill="#91929D"/>
<path d="M11.8036 9.36813L11.8036 9.77345C11.8036 9.64009 11.8036 9.51196 11.8036 9.37074L11.8036 9.36813Z" fill="#91929D"/>
<path d="M11.9316 10.4141C11.8227 10.4141 11.8036 10.3435 11.7982 10.2651C11.8053 10.2988 11.8213 10.3302 11.8447 10.3563C11.868 10.3824 11.898 10.4023 11.9316 10.4141Z" fill="#91929D"/>
<path d="M12.8577 10.4298C12.6638 10.4468 12.4687 10.4468 12.2748 10.4298H12.8577Z" fill="#91929D"/>
<path d="M13.8382 9.35244V9.37074H13.8192L13.8382 9.35244Z" fill="#91929D"/>
<path d="M11.7954 8.63331C11.794 8.64547 11.794 8.65775 11.7955 8.66992V9.19292C11.7539 9.00851 11.7539 8.81771 11.7954 8.63331Z" fill="#91929D"/>
<path d="M12.5962 8.47641H11.9616C12.1706 8.43173 12.3872 8.43173 12.5962 8.47641Z" fill="#91929D"/>
<path d="M11.8036 9.36813L11.8036 9.77345C11.8036 9.64009 11.8036 9.51196 11.8036 9.37074L11.8036 9.36813C11.8036 9.35505 11.8036 9.34198 11.8036 9.3289L11.8036 9.37074L11.8036 9.36813Z" fill="#91929D"/>
<path d="M11.9316 10.4141C11.8227 10.4141 11.8036 10.3435 11.7982 10.2651C11.8053 10.2988 11.8213 10.3302 11.8447 10.3563C11.868 10.3824 11.898 10.4023 11.9316 10.4141Z" fill="#91929D"/>
<path d="M12.8577 10.4298C12.6638 10.4468 12.4687 10.4468 12.2748 10.4298H12.8577Z" fill="#91929D"/>
</svg>
