<svg width="33" height="24" viewBox="0 0 33 24" fill="none" xmlns="http://www.w3.org/2000/svg">
<path d="M31.8214 0H1.17857C0.527664 0 0 0.527664 0 1.17857C0 1.82948 0.527664 2.35714 1.17857 2.35714H31.8214C32.4723 2.35714 33 1.82948 33 1.17857C33 0.527664 32.4723 0 31.8214 0Z" fill="white"/>
<path d="M1.17857 12.9643H16.5C17.1509 12.9643 17.6786 12.4366 17.6786 11.7857C17.6786 11.1348 17.1509 10.6071 16.5 10.6071H1.17857C0.527664 10.6071 0 11.1348 0 11.7857C0 12.4366 0.527664 12.9643 1.17857 12.9643Z" fill="white"/>
<path d="M27.1071 21.2143H1.17857C0.527664 21.2143 0 21.742 0 22.3929C0 23.0438 0.527664 23.5714 1.17857 23.5714H27.1071C27.7581 23.5714 28.2857 23.0438 28.2857 22.3929C28.2857 21.742 27.7581 21.2143 27.1071 21.2143Z" fill="white"/>
</svg>
