<svg width="27" height="19" viewBox="0 0 27 19" fill="none" xmlns="http://www.w3.org/2000/svg">
<g clip-path="url(#clip0_184_132)">
<path d="M22.3943 5.43961C21.3033 4.34659 20.3341 3.38437 19.3759 2.4111C18.8491 1.8752 18.7518 1.23485 19.0842 0.690463C19.5476 -0.0679409 20.4872 -0.248838 21.1367 0.38642C22.9905 2.19962 24.8104 4.04765 26.6338 5.89398C27.0203 6.28549 27.0989 6.76109 26.8875 7.29698C26.6761 7.83287 26.3048 8.10294 25.7483 8.14625C25.5386 8.16154 25.3255 8.16749 25.1183 8.16749C19.1837 8.16749 13.2499 8.16749 7.31702 8.16749C7.08552 8.17177 6.85396 8.16242 6.62355 8.13946C5.79391 8.0418 5.36852 7.51779 5.41757 6.66937C5.45986 5.92285 5.9529 5.4515 6.74702 5.44726C8.74542 5.43707 10.7447 5.44301 12.7439 5.44301L22.3943 5.43961Z" fill="#9697A2"/>
<path d="M4.72836 13.7209C5.67386 14.6551 6.62697 15.5774 7.56232 16.5193C8.25326 17.2148 8.29301 17.9851 7.70102 18.5788C7.09634 19.186 6.36903 19.1376 5.65864 18.4267C3.9582 16.7282 2.26059 15.0245 0.565799 13.3158C0.142946 12.8912 -0.16235 12.4376 0.0930526 11.7956C0.348456 11.1535 0.769608 10.8393 1.56373 10.8385C7.7323 10.8322 13.9006 10.8322 20.0686 10.8385C21.3 10.8385 21.9435 11.7939 21.4674 12.8215C21.1866 13.4279 20.6733 13.5621 20.0593 13.5612C15.1965 13.5527 10.3334 13.551 5.47005 13.5561H4.79348L4.72836 13.7209Z" fill="#9697A2"/>
</g>
<defs>
<clipPath id="clip0_184_132">
<rect width="27" height="19" fill="white"/>
</clipPath>
</defs>
</svg>
